<svg xmlns="http://www.w3.org/2000/svg" viewBox="0 0 24 24"><path fill="#333" d="M5 19c-2.206 0-4-1.794-4-4s1.794-4 4-4 4 1.794 4 4-1.794 4-4 4zm0-6c-1.103 0-2 .897-2 2s.897 2 2 2 2-.897 2-2-.897-2-2-2z"/><path fill="#4D4D4D" d="M20 19c-2.206 0-4-1.794-4-4s1.794-4 4-4 4 1.794 4 4-1.794 4-4 4zm0-6c-1.103 0-2 .897-2 2s.897 2 2 2 2-.897 2-2-.897-2-2-2z"/><path fill="#333" d="M20 19c-2.206 0-4-1.794-4-4s1.794-4 4-4 4 1.794 4 4-1.794 4-4 4zm0-6c-1.103 0-2 .897-2 2s.897 2 2 2 2-.897 2-2-.897-2-2-2zM5.233 9.537l-.725-1.416-3.145.898a.487.487 0 0 0-.211.133l-.006-.006L0 10.293.707 11l1.025-1.025 3.5-.438z"/><path fill="#666" d="M5 15.5a.5.5 0 0 1-.224-.947l4.65-2.325 1.094 1.785-5.389 1.47A.506.506 0 0 1 5 15.5zM18.813 11.143l.985-.174.695 3.944-.985.173z"/><path fill="#E83628" d="M17.5 5a.5.5 0 0 0-.354.854c.608.607.47 1.442.231 1.942C16.416 7.261 14.644 7 12 7c-.976 0-1.326.701-1.558 1.165-.06.12-.117.234-.178.33C8.905 8.44 7.564 7.922 7 7.68V6.5a.5.5 0 0 0-.5-.5h-4a.5.5 0 0 0-.416.777c.667 1.001 2.936 2.805 4.937 4.396 1.119.89 2.175 1.73 2.625 2.18 1.014 1.014.386 2.97.38 2.99a.5.5 0 0 0 .376.647c.104.021 2.577.51 5.098.51a.5.5 0 0 0 .492-.41C17.068 11.17 21.049 11 21.5 11a.5.5 0 0 0 .5-.5C22 8.804 18.888 5 17.5 5z"/><path d="M15.588 17.25c-2.584 0-5.12-.489-5.226-.51a.51.51 0 0 1-.342-.239l-.02-.026a.498.498 0 0 0 .402.515c.104.021 2.577.51 5.098.51a.5.5 0 0 0 .492-.41c.003-.021.009-.038.013-.058a.512.512 0 0 1-.417.218zM21.737 10.75c-.38 0-3.215.125-4.82 3.478C18.5 11.118 21.138 11 21.5 11a.5.5 0 0 0 .46-.304.513.513 0 0 1-.223.054zM9.588 13.104c-.462-.45-1.545-1.291-2.692-2.18C5.228 9.628 3.393 8.2 2.393 7.171c.901 1.037 2.867 2.6 4.628 4.001 1.119.89 2.175 1.73 2.625 2.18.247.247.393.55.478.867-.069-.406-.218-.806-.536-1.116z" opacity=".1"/><path fill="#FFF" d="M17.038 5.559a.5.5 0 0 1 .462-.309c1.346 0 4.315 3.571 4.493 5.335A.467.467 0 0 0 22 10.5C22 8.804 18.888 5 17.5 5a.5.5 0 0 0-.462.309.485.485 0 0 0-.008.328c.006-.026-.002-.053.008-.078zM7 7.929c.563.243 1.905.76 3.264.816.06-.096.118-.21.178-.33.232-.464.582-1.165 1.558-1.165 2.644 0 4.416.261 5.377.796.127-.265.222-.624.195-.994a2.1 2.1 0 0 1-.195.744C16.416 7.261 14.644 7 12 7c-.976 0-1.326.701-1.558 1.165-.06.12-.117.234-.178.33C8.905 8.44 7.564 7.922 7 7.68v.25zM2.06 6.514a.5.5 0 0 1 .44-.264h4a.5.5 0 0 1 .5.5V6.5a.5.5 0 0 0-.5-.5h-4a.5.5 0 0 0-.484.626.523.523 0 0 1 .043-.112z" opacity=".2"/><circle cx="5" cy="15" r="1" fill="#666"/><circle cx="20" cy="15" r="1" fill="#666"/><linearGradient id="a" x1="4.094" x2="5.906" y1="14.577" y2="15.423" gradientUnits="userSpaceOnUse"><stop offset="0" stop-color="#FFF" stop-opacity=".2"/><stop offset="1" stop-color="#FFF" stop-opacity="0"/></linearGradient><circle cx="5" cy="15" r="1" fill="url(#a)"/><linearGradient id="b" x1="19.094" x2="20.906" y1="14.577" y2="15.423" gradientUnits="userSpaceOnUse"><stop offset="0" stop-color="#FFF" stop-opacity=".2"/><stop offset="1" stop-color="#FFF" stop-opacity="0"/></linearGradient><circle cx="20" cy="15" r="1" fill="url(#b)"/><linearGradient id="c" x1="7.714" x2="9.012" y1="14.459" y2="15.757" gradientUnits="userSpaceOnUse"><stop offset="0" stop-opacity=".1"/><stop offset="1" stop-opacity="0"/></linearGradient><path fill="url(#c)" d="M7.125 14.939 7 15l1.64 1.64c.227-.502.36-1.055.36-1.64 0-.191-.02-.376-.05-.56l-1.825.499z"/><linearGradient id="d" x1="1.297" x2="23.153" y1="7.511" y2="17.702" gradientUnits="userSpaceOnUse"><stop offset="0" stop-color="#FFF" stop-opacity=".2"/><stop offset="1" stop-color="#FFF" stop-opacity="0"/></linearGradient><path fill="url(#d)" d="M20.792 11.08c.352-.068.612-.08.708-.08a.5.5 0 0 0 .5-.5C22 8.804 18.888 5 17.5 5a.5.5 0 0 0-.354.854c.608.607.47 1.442.231 1.942C16.416 7.261 14.644 7 12 7c-.976 0-1.326.701-1.558 1.165-.06.12-.117.234-.178.33C8.905 8.44 7.564 7.922 7 7.68V6.5a.5.5 0 0 0-.5-.5h-4a.5.5 0 0 0-.416.777c.278.417.84.976 1.538 1.597l-2.26.645a.487.487 0 0 0-.21.133l-.006-.006L0 10.293.707 11l1.025-1.025 3.288-.411a165.6 165.6 0 0 0 2 1.61c.63.5 1.237.983 1.73 1.392l-.426.213A3.998 3.998 0 0 0 5 11c-2.206 0-4 1.794-4 4s1.794 4 4 4 4-1.794 4-4c0-.19-.03-.374-.056-.557l1.146-.313c.314 1.006-.06 2.198-.065 2.213a.5.5 0 0 0 .377.647c.104.021 2.577.51 5.098.51a.5.5 0 0 0 .492-.41c.059-.324.13-.624.205-.914C16.703 17.806 18.207 19 20 19c2.206 0 4-1.794 4-4a4.006 4.006 0 0 0-3.208-3.92zM7 15c0 1.103-.897 2-2 2s-2-.897-2-2 .897-2 2-2c.6 0 1.133.271 1.5.69l-.968.485A.971.971 0 0 0 5 14c-.551 0-1 .449-1 1s.449 1 1 1c.46 0 .83-.318.947-.74l1.05-.286c0 .009.003.017.003.026zm13 2c-1.103 0-2-.897-2-2a2 2 0 0 1 1.172-1.816l.188 1.064A.985.985 0 0 0 19 15c0 .551.449 1 1 1s1-.449 1-1c0-.43-.276-.79-.657-.93l-.185-1.054A1.996 1.996 0 0 1 22 15c0 1.103-.897 2-2 2z"/></svg>